<mxfile host="app.diagrams.net" modified="2024-03-05T23:57:33.913Z" agent="Mozilla/5.0 (Windows NT 10.0; Win64; x64) AppleWebKit/537.36 (KHTML, like Gecko) Chrome/122.0.0.0 Safari/537.36" etag="ughxPLOWsHytQqkhyTyO" version="23.1.5" type="github">
  <diagram name="Page-1" id="E3KpyPitjYsLN0GZDoVW">
    <mxGraphModel dx="1799" dy="994" grid="1" gridSize="10" guides="1" tooltips="1" connect="1" arrows="1" fold="1" page="1" pageScale="1" pageWidth="1169" pageHeight="827" math="0" shadow="0">
      <root>
        <mxCell id="0" />
        <mxCell id="1" parent="0" />
        <mxCell id="9JcZxiStbfQCe7SZ0dCE-2" value="Introduction" style="swimlane;whiteSpace=wrap;html=1;" vertex="1" parent="1">
          <mxGeometry x="10" y="10" width="420" height="380" as="geometry" />
        </mxCell>
        <mxCell id="9JcZxiStbfQCe7SZ0dCE-9" value="Literature review" style="swimlane;whiteSpace=wrap;html=1;fontStyle=0" vertex="1" parent="1">
          <mxGeometry x="590" y="10" width="420" height="380" as="geometry" />
        </mxCell>
        <mxCell id="9JcZxiStbfQCe7SZ0dCE-10" value="Methodology" style="swimlane;whiteSpace=wrap;html=1;" vertex="1" parent="1">
          <mxGeometry x="1150" y="10" width="420" height="380" as="geometry" />
        </mxCell>
        <mxCell id="9JcZxiStbfQCe7SZ0dCE-11" value="Results and discussion" style="swimlane;whiteSpace=wrap;html=1;" vertex="1" parent="1">
          <mxGeometry x="1760" y="10" width="420" height="380" as="geometry" />
        </mxCell>
        <mxCell id="9JcZxiStbfQCe7SZ0dCE-12" value="Conclusion" style="swimlane;whiteSpace=wrap;html=1;" vertex="1" parent="1">
          <mxGeometry x="2390" width="420" height="380" as="geometry" />
        </mxCell>
      </root>
    </mxGraphModel>
  </diagram>
</mxfile>
